<mxfile host="app.diagrams.net" modified="2023-03-23T12:35:21.831Z" agent="5.0 (Windows NT 10.0; Win64; x64) AppleWebKit/537.36 (KHTML, like Gecko) Chrome/111.0.0.0 Safari/537.36" etag="CLSk-dtiwVa2u57__UTW" version="21.0.8" type="github">
  <diagram name="Strona-1" id="Q4ze7vK1vTZbbRIN3QSM">
    <mxGraphModel dx="1434" dy="796" grid="1" gridSize="10" guides="1" tooltips="1" connect="1" arrows="1" fold="1" page="1" pageScale="1" pageWidth="850" pageHeight="1100" math="0" shadow="0">
      <root>
        <mxCell id="0" />
        <mxCell id="1" parent="0" />
        <mxCell id="YafqlBHCvXzqshZrdjVO-5" style="edgeStyle=orthogonalEdgeStyle;rounded=0;orthogonalLoop=1;jettySize=auto;html=1;entryX=0.5;entryY=0;entryDx=0;entryDy=0;" edge="1" parent="1" source="YafqlBHCvXzqshZrdjVO-1" target="YafqlBHCvXzqshZrdjVO-4">
          <mxGeometry relative="1" as="geometry" />
        </mxCell>
        <mxCell id="YafqlBHCvXzqshZrdjVO-1" value="Start" style="ellipse;whiteSpace=wrap;html=1;" vertex="1" parent="1">
          <mxGeometry x="365" y="40" width="120" height="80" as="geometry" />
        </mxCell>
        <mxCell id="YafqlBHCvXzqshZrdjVO-2" value="Stop" style="ellipse;whiteSpace=wrap;html=1;" vertex="1" parent="1">
          <mxGeometry x="580" y="460" width="120" height="80" as="geometry" />
        </mxCell>
        <mxCell id="YafqlBHCvXzqshZrdjVO-10" style="edgeStyle=orthogonalEdgeStyle;rounded=0;orthogonalLoop=1;jettySize=auto;html=1;" edge="1" parent="1" source="YafqlBHCvXzqshZrdjVO-4" target="YafqlBHCvXzqshZrdjVO-9">
          <mxGeometry relative="1" as="geometry" />
        </mxCell>
        <mxCell id="YafqlBHCvXzqshZrdjVO-4" value="Podaj n&lt;br&gt;i=n&lt;br&gt;suma=0" style="rounded=0;whiteSpace=wrap;html=1;" vertex="1" parent="1">
          <mxGeometry x="365" y="170" width="120" height="60" as="geometry" />
        </mxCell>
        <mxCell id="YafqlBHCvXzqshZrdjVO-13" style="edgeStyle=orthogonalEdgeStyle;rounded=0;orthogonalLoop=1;jettySize=auto;html=1;entryX=1;entryY=0.5;entryDx=0;entryDy=0;" edge="1" parent="1" source="YafqlBHCvXzqshZrdjVO-9" target="YafqlBHCvXzqshZrdjVO-12">
          <mxGeometry relative="1" as="geometry" />
        </mxCell>
        <mxCell id="YafqlBHCvXzqshZrdjVO-15" style="edgeStyle=orthogonalEdgeStyle;rounded=0;orthogonalLoop=1;jettySize=auto;html=1;entryX=0;entryY=0.5;entryDx=0;entryDy=0;" edge="1" parent="1" source="YafqlBHCvXzqshZrdjVO-9" target="YafqlBHCvXzqshZrdjVO-11">
          <mxGeometry relative="1" as="geometry" />
        </mxCell>
        <mxCell id="YafqlBHCvXzqshZrdjVO-9" value="i&amp;gt;o" style="rhombus;whiteSpace=wrap;html=1;" vertex="1" parent="1">
          <mxGeometry x="370" y="290" width="110" height="110" as="geometry" />
        </mxCell>
        <mxCell id="YafqlBHCvXzqshZrdjVO-16" style="edgeStyle=orthogonalEdgeStyle;rounded=0;orthogonalLoop=1;jettySize=auto;html=1;entryX=0.5;entryY=0;entryDx=0;entryDy=0;" edge="1" parent="1" source="YafqlBHCvXzqshZrdjVO-11" target="YafqlBHCvXzqshZrdjVO-2">
          <mxGeometry relative="1" as="geometry" />
        </mxCell>
        <mxCell id="YafqlBHCvXzqshZrdjVO-11" value="suma/n" style="rounded=0;whiteSpace=wrap;html=1;" vertex="1" parent="1">
          <mxGeometry x="580" y="315" width="120" height="60" as="geometry" />
        </mxCell>
        <mxCell id="YafqlBHCvXzqshZrdjVO-14" style="edgeStyle=orthogonalEdgeStyle;rounded=0;orthogonalLoop=1;jettySize=auto;html=1;entryX=0.5;entryY=0;entryDx=0;entryDy=0;" edge="1" parent="1" source="YafqlBHCvXzqshZrdjVO-12" target="YafqlBHCvXzqshZrdjVO-9">
          <mxGeometry relative="1" as="geometry">
            <Array as="points">
              <mxPoint x="210" y="270" />
              <mxPoint x="425" y="270" />
            </Array>
          </mxGeometry>
        </mxCell>
        <mxCell id="YafqlBHCvXzqshZrdjVO-12" value="Pobierz a&lt;br&gt;suma=suma+a&lt;br&gt;i=i-1" style="rounded=0;whiteSpace=wrap;html=1;" vertex="1" parent="1">
          <mxGeometry x="150" y="315" width="120" height="60" as="geometry" />
        </mxCell>
        <mxCell id="YafqlBHCvXzqshZrdjVO-17" value="Tak" style="text;html=1;strokeColor=none;fillColor=none;align=center;verticalAlign=middle;whiteSpace=wrap;rounded=0;" vertex="1" parent="1">
          <mxGeometry x="290" y="300" width="60" height="30" as="geometry" />
        </mxCell>
        <mxCell id="YafqlBHCvXzqshZrdjVO-19" value="Nie" style="text;html=1;strokeColor=none;fillColor=none;align=center;verticalAlign=middle;whiteSpace=wrap;rounded=0;" vertex="1" parent="1">
          <mxGeometry x="500" y="300" width="60" height="30" as="geometry" />
        </mxCell>
      </root>
    </mxGraphModel>
  </diagram>
</mxfile>
